<svg width="68" height="101" fill="none" xmlns="http://www.w3.org/2000/svg"><path d="M61.503 36.716c-2.707-1.214-5.876.015-7.08 2.744L47.19 56.347h-1.715V15.556c0-2.986-2.401-5.407-5.363-5.407-2.962 0-5.363 2.42-5.363 5.407V7.967c0-2.986-2.4-5.408-5.363-5.408-2.961 0-5.362 2.421-5.362 5.408v7.59c0-2.987-2.401-5.408-5.363-5.408-2.962 0-5.363 2.42-5.363 5.407v12.795c0-2.986-2.4-5.407-5.363-5.407-2.961 0-5.362 2.42-5.362 5.407V67.15c0 6.17 3.842 11.433 9.244 13.496v45.749h31.49v-45.75a14.416 14.416 0 0 0 8.522-8.962l.036.006 5.125-11.432 7.233-16.403c1.204-2.729-.014-5.925-2.72-7.138z" fill="#FFCAB9"/><path d="M21.032 15.556a5.41 5.41 0 0 1 1.496-3.74 5.369 5.369 0 0 0-1.496-1.105v4.845z" fill="#FABBA7"/><path d="M12.728 78.22c-4.536-1.732-7.583-6.18-7.583-11.07v-6.84c0-3.354-5.144-3.354-5.144 0v6.84c0 6.418 3.65 12.306 9.245 15.18v45.088c0 1.432 1.151 2.594 2.572 2.594 1.42 0 2.572-1.162 2.572-2.594V80.645a2.593 2.593 0 0 0-1.662-2.425z" fill="#000"/><path d="M66.73 38.786a7.92 7.92 0 0 0-4.182-4.44c-3.951-1.771-8.752.155-10.486 4.085l-4.015 9.375v-32.25c.11-5.477-5.703-9.503-10.725-7.49-.611-10.76-15.44-10.75-15.87 0-5.023-2.011-10.834 2.012-10.725 7.49v5.305C5.707 18.851-.11 22.873.002 28.351v18.99c0 3.354 5.144 3.354 5.144 0v-18.99c.143-3.731 5.441-3.724 5.581 0V46.39c0 3.353 5.144 3.353 5.144 0V15.556c.138-3.722 5.44-3.733 5.581 0v25.222c0 3.353 5.144 3.353 5.144 0V7.968c0-1.552 1.252-2.815 2.791-2.815 1.54 0 2.79 1.262 2.79 2.814v32.81c0 3.354 5.145 3.354 5.145 0v-25.22c0-1.552 1.252-2.815 2.79-2.815 1.54 0 2.792 1.262 2.792 2.814v38.26c-7.592.685-13.532 7.121-13.532 14.822 0 3.354 5.144 3.354 5.144 0 0-7.27 6.528-9.954 12.675-9.697a2.572 2.572 0 0 0 2.362-1.565l7.222-16.862c.837-1.502 2.065-1.978 3.683-1.428 1.49.843 1.962 2.082 1.417 3.714C57.818 52 49.44 70.83 49.44 70.83c-1.186 3.397-3.82 6.16-7.044 7.391a2.593 2.593 0 0 0-1.661 2.426v45.749a2.582 2.582 0 0 0 2.572 2.593 2.582 2.582 0 0 0 2.572-2.593v-44.07c3.823-1.98 6.883-5.483 8.374-9.665 4.14-9.236 8.237-18.49 12.32-27.752a8.013 8.013 0 0 0 .156-6.122z" fill="#000"/></svg>