<svg width="57" height="101" fill="none" xmlns="http://www.w3.org/2000/svg"><path d="M44.222 124.952V56.876c5.517-2.064 9.44-7.331 9.44-13.506V18.81H2.628v24.56c0 6.175 3.923 11.442 9.44 13.506v68.076h32.154z" fill="#FFCAB9"/><path d="M8.104 24.459c-3.025 0-5.476-2.423-5.476-5.412v-5.16c0-2.99 2.451-5.413 5.476-5.413 3.024 0 5.476 2.423 5.476 5.412v5.16c0 2.99-2.452 5.413-5.476 5.413zM19.056 24.459c-3.025 0-5.476-2.423-5.476-5.412V8.003c0-2.989 2.451-5.412 5.476-5.412 3.024 0 5.476 2.423 5.476 5.412v11.044c0 2.989-2.452 5.412-5.476 5.412zM30.008 24.459c-3.025 0-5.476-2.423-5.476-5.412V8.003c0-2.989 2.451-5.412 5.476-5.412 3.024 0 5.476 2.423 5.476 5.412v11.044c0 2.989-2.452 5.412-5.476 5.412zM40.96 24.459c-3.025 0-5.476-2.423-5.476-5.412V8.003c0-2.989 2.451-5.412 5.476-5.412 3.024 0 5.476 2.423 5.476 5.412v11.044c0 2.989-2.452 5.412-5.476 5.412z" fill="#FABBA7"/><path d="M53.662 43.37V19.047c0-2.99-2.451-5.412-5.476-5.412H30.008c-3.025 0-5.476 2.423-5.476 5.412s2.451 5.411 5.476 5.411H42.71v8.101c-5.073.929-10.092 5.658-10.092 12.3" fill="#FFCAB9"/><path d="M49.062 11.087V8.003c.023-6.944-8.493-10.581-13.578-5.895-2.957-2.795-7.996-2.794-10.952 0C19.942-2.13 12.274.394 11.107 6.452 5.966 4.304-.116 8.338.002 13.886V43.37c0 6.422 3.726 12.315 9.44 15.191l.93 65.331c0 1.434 1.175 2.596 2.625 2.596 1.451 0 2.627-1.162 2.627-2.596l-.93-67.016c0-1.08-.676-2.046-1.697-2.428-4.631-1.733-7.743-6.185-7.743-11.078V26.541c2.754 1.09 6.253.375 8.326-1.599 2.957 2.795 7.996 2.795 10.952 0a8.124 8.124 0 0 0 5.476 2.112h10.076v3.538c-5.213 1.882-10.092 7.062-10.092 14.267 0 1.434 1.175 2.596 2.626 2.596 1.45 0 2.626-1.162 2.626-2.596 0-5.387 4.093-9.043 7.944-9.748a2.604 2.604 0 0 0 2.148-2.552v-8.1c0-1.434-1.175-2.596-2.626-2.596H30.008c-1.571 0-2.85-1.264-2.85-2.816 0-1.553 1.278-2.817 2.85-2.817h18.178c1.571 0 2.85 1.264 2.85 2.817V43.37c0 4.893-3.112 9.345-7.743 11.078a2.596 2.596 0 0 0-1.697 2.428l.93 67.016c0 1.434 1.175 2.596 2.626 2.596 1.451 0 2.627-1.162 2.627-2.596l-.93-65.33c5.713-2.877 9.44-8.77 9.44-15.192V19.047c0-4.123-3.17-7.527-7.227-7.96zm-8.102-5.9c1.57 0 2.85 1.263 2.85 2.816v3.036h-5.7V8.003c0-1.553 1.278-2.816 2.85-2.816zM8.104 21.863c-1.572 0-2.85-1.263-2.85-2.816V13.886c.144-3.732 5.557-3.729 5.7 0v5.16c0 1.554-1.279 2.817-2.85 2.817zm10.952 0c-1.571 0-2.85-1.263-2.85-2.816V8.003c.144-3.732 5.557-3.73 5.7 0v11.044c0 1.553-1.279 2.816-2.85 2.816zm8.102-10.31v-3.55c.144-3.732 5.557-3.728 5.7 0v3.037h-2.85a8.132 8.132 0 0 0-2.85.512z" fill="#000"/></svg>