<svg width="56" height="101" fill="none" xmlns="http://www.w3.org/2000/svg"><path d="M43.455 125.408V80.302a14.417 14.417 0 0 0 9.276-13.484V42.297H2.582v24.52a14.417 14.417 0 0 0 9.276 13.485v45.106h31.597z" fill="#FFCAB9"/><path d="M31.549 45.056c-2.923.541-5.73-1.399-6.268-4.333L19.45 8.975c-.54-2.934 1.393-5.752 4.315-6.293 2.923-.541 5.729 1.399 6.268 4.333l5.831 31.748c.54 2.934-1.393 5.752-4.315 6.293z" fill="#FABBA7"/><path d="M37.79 44.595c-2.858-.814-4.518-3.802-3.707-6.673l8.778-31.056c.811-2.87 3.786-4.537 6.645-3.723 2.859.815 4.519 3.803 3.708 6.673l-8.777 31.056c-.811 2.871-3.787 4.538-6.646 3.723zM7.963 47.937c-2.972 0-5.38-2.42-5.38-5.404v-5.152c0-2.984 2.408-5.403 5.38-5.403s5.382 2.419 5.382 5.403v5.152c0 2.985-2.41 5.404-5.382 5.404zM18.726 47.937c-2.972 0-5.381-2.42-5.381-5.404V31.507c0-2.984 2.409-5.403 5.38-5.403 2.973 0 5.382 2.42 5.382 5.403v11.026c0 2.985-2.41 5.404-5.381 5.404z" fill="#FABBA7"/><path d="M52.732 66.818V42.533c0-2.984-2.41-5.403-5.381-5.403H29.488c-2.972 0-5.381 2.42-5.381 5.403 0 2.985 2.409 5.404 5.38 5.404H41.97v8.087c-4.985.927-9.917 5.65-9.917 12.28" fill="#FFCAB9"/><path d="M50.21.65c-4.15-1.182-8.667 1.385-9.832 5.509l-4.775 16.894-3.032-16.507C31.776 2.21 27.614-.667 23.299.134c-4.318.8-7.182 4.976-6.386 9.312l2.59 14.106c-3.941-.385-7.819 2.495-8.587 6.407C5.863 27.815-.115 31.842.002 37.382v29.436c0 6.412 3.662 12.296 9.276 15.167v43.424a2.586 2.586 0 0 0 2.58 2.591c1.426 0 2.581-1.16 2.581-2.591V80.302a2.59 2.59 0 0 0-1.667-2.424c-4.551-1.73-7.609-6.175-7.609-11.06V50.016c2.706 1.089 6.144.374 8.181-1.597 2.906 2.79 7.858 2.79 10.762 0a7.914 7.914 0 0 0 5.381 2.109h9.902v3.532c-5.123 1.88-9.918 7.051-9.918 14.245a2.586 2.586 0 0 0 2.581 2.591c1.426 0 2.581-1.16 2.581-2.591 0-5.379 4.022-9.029 7.807-9.733a2.588 2.588 0 0 0 2.11-2.548v-8.088a2.586 2.586 0 0 0-2.58-2.59H29.488c-3.705-.14-3.714-5.482 0-5.624H47.35a2.81 2.81 0 0 1 2.8 2.811v24.285c0 4.885-3.058 9.33-7.609 11.06a2.59 2.59 0 0 0-1.667 2.424v13.722a2.586 2.586 0 0 0 2.58 2.592c1.426 0 2.581-1.16 2.581-2.592v-12.04c5.614-2.87 9.276-8.754 9.276-15.166V42.533a7.998 7.998 0 0 0-6.444-7.847l6.829-24.163c1.198-4.24-1.263-8.67-5.486-9.872zM7.964 45.346a2.81 2.81 0 0 1-2.8-2.812v-5.152c.141-3.726 5.461-3.723 5.6 0v5.152a2.809 2.809 0 0 1-2.8 2.812zm13.563-2.812c-.14 3.722-5.46 3.727-5.6 0V31.507c.139-3.722 5.459-3.726 5.6 0v11.026zm5.161-7.482v-3.543a7.969 7.969 0 0 0-1.268-4.32L21.988 8.505a2.814 2.814 0 0 1 2.246-3.275 2.804 2.804 0 0 1 3.261 2.255l4.97 27.053h-2.977c-.985 0-1.929.182-2.8.512zM50.731 9.109l-7.187 25.43h-5.822l7.621-26.966c.62-1.605 1.773-2.25 3.46-1.937A2.816 2.816 0 0 1 50.73 9.11z" fill="#000"/></svg>